<svg xmlns="http://www.w3.org/2000/svg" viewBox="0 0 174 28" fill="none" preserveAspectRatio="xMinYMid meet" aria-label="Robotics Centre">
  <g fill="#f27e39">
    <path d="M64.8948 2.5013V0.167969H67.2328H74.1628C76.0248 0.172635 77.5508 1.69863 77.5461 3.56063V4.2513C77.5461 5.7353 76.5755 7.00464 75.2408 7.4573L77.5415 10.9993H74.7555L72.5715 7.63464H67.2281V11.0086H64.8901V5.29197V2.49663L64.8948 2.5013ZM75.2081 4.2513V3.56063C75.2081 2.98197 74.7368 2.51064 74.1581 2.50597H67.2281V5.29663H74.1581C74.7368 5.29663 75.2081 4.82997 75.2128 4.2513H75.2081Z"/>
    <path d="M89.9032 0.177734C91.7279 0.177734 93.2212 1.67574 93.2212 3.5004V7.7004C93.2212 9.52507 91.7232 11.0184 89.8939 11.0184H85.9272H82.7399C80.9152 11.0184 79.4219 9.5204 79.4219 7.69573V3.49573C79.4219 1.67107 80.9199 0.177734 82.7492 0.177734H85.9365H89.9032ZM82.7445 8.68507H85.9319H89.8985C90.4399 8.68507 90.8832 8.24174 90.8832 7.7004V3.5004C90.8832 2.95907 90.4445 2.51574 89.8985 2.51574H85.9319H82.7445C82.2032 2.51574 81.7599 2.95907 81.7599 3.5004V7.7004C81.7599 8.24174 82.1985 8.68507 82.7399 8.68507H82.7445Z"/>
    <path d="M106.064 7.73774C106.064 7.21507 105.63 6.7764 105.107 6.7764H95.0972V4.43374H105.107C105.63 4.4384 106.069 4.0044 106.069 3.48174C106.069 2.95907 105.634 2.5204 105.112 2.5204H95.1018V0.177734H105.112C106.922 0.182401 108.406 1.6664 108.406 3.48174C108.406 4.28907 108.112 5.03573 107.622 5.60973C108.108 6.18373 108.406 6.92574 108.406 7.73774C108.406 9.5484 106.922 11.0324 105.112 11.0324H95.1018V8.68974H105.112C105.634 8.6944 106.073 8.2604 106.073 7.73774H106.064Z"/>
    <path d="M120.76 0.196289C122.584 0.196289 124.078 1.69429 124.078 3.51896V7.71896C124.078 9.54362 122.58 11.0416 120.75 11.037H116.784H113.596C111.772 11.037 110.278 9.53896 110.278 7.71429V3.51429C110.278 1.68962 111.776 0.196289 113.606 0.196289H116.793H120.76ZM113.601 8.69896H116.788H120.755C121.296 8.69896 121.74 8.25562 121.74 7.71429V3.51429C121.74 2.97296 121.301 2.52962 120.76 2.52962H116.793H113.606C113.064 2.52962 112.621 2.97296 112.621 3.51429V7.71429C112.621 8.25562 113.06 8.69896 113.601 8.69896Z"/>
    <path d="M125.954 2.53353V0.200195H131.437H133.77H138.773H139.254V2.5382H133.77V11.0455H131.432V2.5382H125.954V2.53353Z"/>
    <path d="M143.472 0.209961V11.0553H141.129V0.209961H143.472Z"/>
    <path d="M156.805 7.73751V7.55551H159.143V7.73751C159.143 9.56218 157.645 11.0555 155.82 11.0555H151.853H148.666C146.841 11.0555 145.348 9.55751 145.348 7.73284V3.53284C145.348 1.70818 146.846 0.214844 148.671 0.214844H151.858H155.825C157.649 0.214844 159.143 1.71284 159.143 3.53751V3.71951H156.805V3.53751C156.805 2.99618 156.361 2.55284 155.82 2.55284H151.853H148.666C148.125 2.55284 147.681 2.99618 147.681 3.53751V7.73751C147.681 8.27884 148.12 8.72218 148.661 8.72218H151.849H155.815C156.357 8.72218 156.8 8.27884 156.8 7.73751H156.805Z"/>
    <path d="M161.014 7.56039H163.352V7.74239C163.352 8.27906 163.791 8.72239 164.327 8.72706H166.973H167.132H167.706H170.506C171.047 8.72706 171.491 8.28372 171.491 7.74239C171.477 7.22906 171.052 6.80906 170.534 6.80906H167.879H167.627H166.572H164.309C163.973 6.80906 163.655 6.75773 163.347 6.66439C162.302 6.34239 161.476 5.51639 161.154 4.47106C161.065 4.17706 161.014 3.85973 161.014 3.53773C161.014 1.71306 162.512 0.219727 164.337 0.219727H166.399H166.973H170.511C171.995 0.219727 173.26 1.20906 173.68 2.55773C173.778 2.87039 173.829 3.20172 173.829 3.54239V3.72439H171.491V3.54239C171.491 3.00106 171.047 2.55773 170.506 2.55773H167.622H167.127H164.332C163.791 2.55773 163.347 3.00106 163.347 3.54239C163.361 4.05572 163.786 4.47572 164.304 4.47572H166.567H167.127H170.53C170.861 4.47572 171.183 4.52706 171.491 4.62039C172.536 4.94239 173.362 5.76839 173.684 6.81373C173.773 7.10773 173.824 7.42506 173.829 7.74706C173.829 9.57173 172.331 11.0651 170.506 11.0651H167.706H167.627H164.341C162.857 11.0651 161.593 10.0757 161.173 8.72706C161.075 8.41439 161.023 8.08306 161.023 7.74239V7.56039H161.014Z"/>
    <path d="M76.3512 24.6076V24.4256H78.6892V24.6076C78.6892 26.4323 77.1912 27.9256 75.3665 27.9256H71.3999H68.2125C66.3879 27.9256 64.8945 26.4276 64.8945 24.603V20.403C64.8945 18.5736 66.3925 17.085 68.2219 17.085H71.4092H75.3759C77.2005 17.085 78.6939 18.5783 78.6939 20.4076V20.5896H76.3559V20.4076C76.3559 19.8663 75.9125 19.423 75.3712 19.423H71.4045H68.2172C67.6759 19.423 67.2325 19.8663 67.2325 20.4076V24.6076C67.2325 25.149 67.6712 25.5923 68.2125 25.5923H71.3999H75.3665C75.9079 25.5923 76.3512 25.149 76.3512 24.6076Z"/>
    <path d="M80.5605 25.5923H92.6145V27.935H80.5605V25.5923ZM80.5652 21.341H92.6192V23.6836H80.5652V21.341ZM80.5652 17.085H92.6192V19.4276H80.5652V17.085Z"/>
    <path d="M104.51 17.0994H106.843L106.838 26.9601V27.9447H104.51H104.505L96.8331 20.3801V27.9401H94.4951V18.0794L94.4998 17.0947H96.8285L96.8331 17.1041L104.505 24.6594V17.0994H104.51Z"/>
    <path d="M108.729 19.4366V17.0986H109.209H114.212H116.545H121.548H122.029V19.4366H116.545V27.944H114.207V19.4366H108.729Z"/>
    <path d="M126.242 22.242H133.172C133.751 22.242 134.222 21.7753 134.222 21.1966V20.5059C134.222 19.9273 133.751 19.4559 133.172 19.4559H123.909V17.1133H133.172C135.034 17.1179 136.56 18.6439 136.556 20.5059V21.1966C136.556 22.6806 135.59 23.9499 134.25 24.4026L136.551 27.9446H133.765L131.581 24.5799H126.238V27.9539H123.904V24.5753V22.242H126.242Z"/>
    <path d="M138.437 25.6245H150.491V27.9672H138.437V25.6245ZM138.441 21.3685H150.495V23.7112H138.441V21.3685ZM138.441 17.1172H150.495V19.4599H138.441V17.1172Z"/>
    <path d="M57.4375 10.7889V0.0322266H30.0582V0.223562V10.7889V17.1309V22.8056L17.9762 10.7889H27.1508V0.0322266H-0.228516V0.508225V10.7889V27.8876H10.5282V18.0269L20.1088 27.8876H30.0582H39.8488H57.4375V17.1309H40.8148V10.7889H57.4375Z"/>
  </g>
</svg>
