<svg width="131" height="76" viewBox="0 0 131 76" fill="none" xmlns="http://www.w3.org/2000/svg">
<g clip-path="url(#clip0_1146_391)">
<path d="M-0.214383 70.5141V69.0422H1.25757H5.62976C6.8047 69.0422 7.76562 70.0075 7.76562 71.1824V71.6192C7.76562 72.5539 7.15412 73.3532 6.31113 73.6415L7.76125 75.8778H6.00102L4.62516 73.755H1.2532V75.8822H-0.21875V72.2787V70.5185L-0.214383 70.5141ZM6.2893 71.6192V71.1824C6.2893 70.8155 5.99228 70.5185 5.62539 70.5185H1.2532V72.2787H5.62539C5.99228 72.2787 6.2893 71.9817 6.2893 71.6192Z" fill="#f27e39"/>
<path d="M15.5577 69.0508C16.7108 69.0508 17.6499 69.9943 17.6499 71.1474V73.7987C17.6499 74.9518 16.7065 75.8908 15.5534 75.8908H13.0506H11.0414C9.8883 75.8908 8.94922 74.9474 8.94922 73.7943V71.143C8.94922 69.9899 9.89267 69.0508 11.0458 69.0508H13.055H15.5577ZM11.0414 74.4145H13.0506H15.5534C15.894 74.4145 16.1736 74.135 16.1736 73.7943V71.143C16.1736 70.8023 15.894 70.5228 15.5534 70.5228H13.0506H11.0414C10.7007 70.5228 10.4212 70.8023 10.4212 71.143V73.7943C10.4212 74.135 10.7007 74.4145 11.0414 74.4145Z" fill="#f27e39"/>
<path d="M25.7526 73.8161C25.7526 73.4842 25.4774 73.2134 25.1498 73.209H18.8383V71.7327H25.1542C25.4862 71.7327 25.757 71.4619 25.757 71.1299C25.757 70.798 25.4818 70.5272 25.1542 70.5272H18.8383V69.0508H25.1498C26.2942 69.0508 27.2289 69.9899 27.2246 71.1343C27.2246 71.6453 27.0367 72.1127 26.731 72.4752C27.0367 72.8377 27.2246 73.3051 27.2246 73.8161C27.2246 74.9605 26.2898 75.8952 25.1455 75.8952H18.834V74.4189H25.1498C25.4818 74.4189 25.7526 74.1481 25.7526 73.8161Z" fill="#f27e39"/>
<path d="M35.0206 69.0638C36.1737 69.0638 37.1128 70.0073 37.1128 71.1604V73.8117C37.1128 74.9648 36.1693 75.9082 35.0162 75.9038H32.5135H30.5043C29.3512 75.9038 28.4121 74.9604 28.4121 73.8073V71.156C28.4121 70.0029 29.3556 69.0638 30.5087 69.0638H32.5179H35.0206ZM30.5043 74.4275H32.5135H35.0162C35.3569 74.4275 35.6365 74.148 35.6365 73.8073V71.156C35.6365 70.8153 35.3613 70.5358 35.0162 70.5358H32.5135H30.5043C30.1636 70.5358 29.8841 70.8153 29.8841 71.156V73.8073C29.8841 74.148 30.1592 74.4275 30.5043 74.4275Z" fill="#f27e39"/>
<path d="M38.2969 70.5356V69.0637H41.7562H43.2281H46.3861H46.6875V70.5356H43.2281V75.9037H41.7518V70.5356H38.2969Z" fill="#f27e39"/>
<path d="M49.3474 69.0685V75.9085H47.8711V69.0685H49.3474Z" fill="#f27e39"/>
<path d="M57.7551 73.8203V73.7067H59.2271V73.8203C59.2271 74.9734 58.2836 75.9124 57.1305 75.9124H54.6278H52.6186C51.4655 75.9124 50.5264 74.969 50.5264 73.8159V71.1646C50.5264 70.0115 51.4698 69.0724 52.6229 69.0724H54.6321H57.1349C58.288 69.0724 59.2271 70.0159 59.2271 71.169V71.2826H57.7551V71.169C57.7551 70.8283 57.4756 70.5488 57.1349 70.5488H54.6321H52.6229C52.2822 70.5488 52.0027 70.8283 52.0027 71.169V73.8203C52.0027 74.161 52.2779 74.4405 52.6229 74.4405H54.6321H57.1349C57.4756 74.4405 57.7551 74.161 57.7551 73.8203Z" fill="#f27e39"/>
<path d="M60.4111 73.7067H61.8831V73.8203C61.8831 74.161 62.1583 74.4405 62.4989 74.4405H64.1675H64.2679H64.6304H66.3994C66.7401 74.4405 67.0196 74.161 67.0196 73.8203C67.0109 73.4971 66.7445 73.2306 66.4169 73.2306H64.744H64.5824H63.9185H62.4902C62.2806 73.2306 62.0753 73.2 61.8875 73.1389C61.2279 72.938 60.7081 72.4138 60.5029 71.7543C60.4461 71.5665 60.4155 71.3699 60.4111 71.1646C60.4111 70.0115 61.3546 69.0724 62.5077 69.0724H63.8093H64.1718H66.4038C67.3385 69.0724 68.1378 69.697 68.4042 70.5488C68.4654 70.7453 68.5003 70.955 68.5003 71.169V71.2826H67.0284V71.169C67.0284 70.8283 66.7488 70.5488 66.4081 70.5444H64.5911H64.281H62.5164C62.1757 70.5444 61.8962 70.8239 61.8962 71.1646C61.9049 71.4878 62.1714 71.7543 62.4989 71.7543H63.9272H64.281H66.4256C66.6353 71.7543 66.8406 71.7892 67.0284 71.846C67.6879 72.0469 68.2077 72.5711 68.4086 73.2306C68.4654 73.4184 68.496 73.615 68.5003 73.8203C68.5003 74.9734 67.5569 75.9124 66.4038 75.9124H64.6348H64.5824H62.5077C61.573 75.9124 60.7737 75.2879 60.5072 74.4361C60.4461 74.2396 60.4111 74.0299 60.4111 73.8159V73.7023V73.7067Z" fill="#f27e39"/>
<path d="M83.0539 73.8339V73.7204H84.5259V73.8339C84.5259 74.987 83.5824 75.9261 82.4293 75.9261H79.9266H77.9174C76.7643 75.9261 75.8252 74.9827 75.8252 73.8296V71.1783C75.8252 70.0252 76.7686 69.0861 77.9217 69.0861H79.9309H82.4337C83.5868 69.0861 84.5259 70.0296 84.5259 71.1827V71.2962H83.0539V71.1827C83.0539 70.842 82.7744 70.5624 82.4337 70.5624H79.9309H77.9217C77.5811 70.5624 77.3015 70.842 77.3015 71.1827V73.8339C77.3015 74.1746 77.5767 74.4542 77.9217 74.4542H79.9309H82.4337C82.7744 74.4542 83.0539 74.1746 83.0539 73.8339Z" fill="#f27e39"/>
<path d="M85.709 74.4538H93.3134V75.9302H85.709V74.4538ZM85.7133 71.772H93.3177V73.2483H85.7133V71.772ZM85.7133 69.0901H93.3177V70.5665H85.7133V69.0901Z" fill="#f27e39"/>
<path d="M100.817 69.0987H102.289V75.3185V75.9387H100.822L95.9822 71.169V75.9387H94.5059V69.7189V69.0987H95.9735V69.1031L100.813 73.8683V69.0987H100.817Z" fill="#f27e39"/>
<path d="M103.478 70.5707V69.0987H103.779H106.937H108.409H111.567H111.868V70.5707H108.409V75.9387H106.932V70.5707H103.478Z" fill="#f27e39"/>
<path d="M114.524 72.3393H118.896C119.258 72.3393 119.56 72.0423 119.56 71.6797V71.2429C119.56 70.876 119.263 70.579 118.9 70.579H113.056V69.1027H118.9C120.075 69.1027 121.036 70.068 121.036 71.2429V71.6797C121.036 72.6144 120.425 73.4137 119.582 73.702L121.032 75.9383H119.272L117.896 73.8156H114.524V75.9427H113.052V73.8112V72.3393H114.524Z" fill="#f27e39"/>
<path d="M122.216 74.4752H129.82V75.9515H122.216V74.4752ZM122.216 71.7933H129.82V73.2697H122.216V71.7933ZM122.22 69.1115H129.825V70.5878H122.22V69.1115Z" fill="#f27e39"/>
<path d="M129.942 24.3287V0.0480347H68.1463V0.476079V24.3287V38.6377V51.4485L40.878 24.3287H61.5771V0.0480347H-0.21875V1.12252V24.3287V62.9227H24.0663V40.6687L45.6914 62.9227H68.1463H90.2431H129.942V38.6377H92.427V24.3287H129.942Z" fill="#f27e39"/>
</g>
<defs>
<clipPath id="clip0_1146_391">
<rect width="130.161" height="76" fill="white"/>
</clipPath>
</defs>
</svg>
